<?xml version="1.0" standalone="no"?>
<!DOCTYPE svg PUBLIC "-//W3C//DTD SVG 20010904//EN"
 "http://www.w3.org/TR/2001/REC-SVG-20010904/DTD/svg10.dtd">
<svg version="1.0" xmlns="http://www.w3.org/2000/svg"
 width="300.000000pt" height="300.000000pt" viewBox="0 0 300.000000 300.000000"
 preserveAspectRatio="xMidYMid meet">
<metadata>
Created by potrace 1.11, written by Peter Selinger 2001-2013
</metadata>
<g transform="translate(0.000000,300.000000) scale(0.100000,-0.100000)"
fill="#000000" stroke="none">
<path d="M0 1500 l0 -1500 1500 0 1500 0 0 1500 0 1500 -1500 0 -1500 0 0
-1500z m1153 1162 c81 -31 212 -114 289 -181 25 -23 51 -41 58 -41 7 0 33 18
58 41 76 67 208 149 290 182 101 40 223 45 288 10 137 -73 195 -263 161 -531
-9 -72 -18 -137 -19 -144 -2 -7 25 -22 62 -35 338 -123 511 -317 445 -503 -46
-130 -219 -262 -448 -342 -47 -16 -66 -27 -62 -37 3 -7 13 -70 21 -140 38
-292 -36 -498 -195 -545 -67 -20 -98 -20 -179 -1 -108 26 -236 97 -359 202
l-63 54 -63 -54 c-123 -105 -251 -176 -359 -202 -81 -19 -112 -19 -179 1 -159
47 -233 253 -195 545 8 70 18 133 21 140 4 10 -15 21 -62 37 -229 80 -402 212
-448 342 -66 186 107 380 445 503 36 13 64 28 63 35 -2 6 -10 66 -19 134 -39
295 30 493 192 554 59 22 164 12 257 -24z"/>
<path d="M915 2592 c-51 -24 -78 -54 -107 -117 -21 -45 -23 -65 -23 -190 0
-164 18 -280 43 -270 13 5 235 45 337 61 22 3 40 19 72 62 22 31 76 97 119
146 l78 89 -49 44 c-176 155 -365 225 -470 175z"/>
<path d="M1898 2591 c-69 -22 -130 -57 -223 -127 -122 -91 -120 -79 -30 -181
42 -48 96 -114 118 -145 32 -43 50 -59 72 -62 102 -16 324 -56 337 -61 25 -10
43 106 43 270 0 125 -2 145 -23 190 -29 63 -57 93 -107 116 -50 23 -114 23
-187 0z"/>
<path d="M1415 2213 c-118 -135 -126 -123 85 -123 171 0 180 1 171 18 -15 29
-161 192 -171 192 -5 0 -44 -39 -85 -87z"/>
<path d="M1285 1991 l-49 -6 -67 -105 c-36 -58 -94 -158 -129 -222 l-62 -118
58 -107 c31 -60 89 -160 129 -223 l72 -115 59 -6 c76 -9 332 -9 408 0 l59 6
72 115 c40 63 98 163 129 223 l58 107 -62 118 c-35 64 -93 164 -129 222 l-67
105 -54 7 c-67 7 -356 7 -425 -1z m321 -250 c49 -22 111 -92 124 -140 22 -79
1 -171 -53 -230 -32 -34 -115 -71 -162 -71 -94 0 -179 53 -216 135 -38 82 -17
195 47 259 65 64 177 85 260 47z"/>
<path d="M1330 1530 c0 -99 0 -100 24 -100 19 0 25 6 28 27 4 40 33 41 53 4
12 -24 22 -31 46 -31 l30 0 -21 31 c-20 28 -21 31 -6 48 9 10 16 34 16 54 0
50 -27 67 -107 67 l-63 0 0 -100z m115 30 c0 -21 -5 -26 -32 -28 -31 -3 -33
-1 -33 28 0 29 2 31 33 28 27 -2 32 -7 32 -28z"/>
<path d="M1530 1530 l0 -100 80 0 c73 0 80 2 80 20 0 18 -7 20 -55 20 -48 0
-55 2 -55 20 0 17 7 20 50 20 43 0 50 3 50 20 0 17 -7 20 -50 20 -43 0 -50 3
-50 20 0 18 7 20 55 20 48 0 55 2 55 20 0 18 -7 20 -80 20 l-80 0 0 -100z"/>
<path d="M943 1948 c-70 -14 -103 -24 -103 -33 0 -19 77 -236 87 -246 5 -5 26
24 48 64 21 39 60 107 87 150 26 43 48 80 48 83 0 9 -69 1 -167 -18z"/>
<path d="M1890 1966 c0 -3 22 -40 48 -83 27 -43 66 -111 87 -150 22 -40 43
-69 48 -64 10 10 87 227 87 245 0 10 -36 21 -112 35 -109 20 -158 26 -158 17z"/>
<path d="M630 1857 c-393 -158 -445 -386 -130 -575 36 -21 173 -78 222 -93 27
-7 28 -6 48 60 11 37 40 118 64 180 l45 113 -33 82 c-19 44 -48 125 -66 179
-17 53 -35 97 -38 97 -4 0 -54 -19 -112 -43z"/>
<path d="M2220 1803 c-18 -54 -47 -135 -66 -179 l-33 -82 45 -113 c24 -62 53
-143 64 -180 24 -78 13 -77 155 -20 236 95 352 230 311 363 -20 67 -66 120
-154 178 -60 39 -259 130 -285 130 -3 0 -20 -44 -37 -97z"/>
<path d="M922 1404 c-15 -28 -82 -224 -82 -239 0 -8 38 -20 113 -34 108 -20
157 -26 157 -17 0 3 -22 40 -49 83 -27 43 -62 105 -79 138 -46 89 -48 91 -60
69z"/>
<path d="M2025 1348 c-21 -40 -60 -108 -87 -151 -26 -43 -48 -80 -48 -83 0 -9
49 -3 158 17 76 14 112 25 112 35 0 19 -77 235 -88 246 -5 5 -24 -20 -47 -64z"/>
<path d="M799 1003 c-8 -38 -14 -129 -14 -208 0 -125 2 -145 23 -190 29 -63
57 -93 107 -116 54 -25 117 -23 197 5 70 25 200 106 278 174 l44 39 -42 49
c-24 27 -77 92 -120 144 -42 52 -81 98 -85 101 -5 4 -39 9 -75 13 -59 5 -200
32 -273 51 -26 6 -27 5 -40 -62z"/>
<path d="M2115 1054 c-27 -7 -99 -21 -160 -30 -60 -9 -119 -18 -130 -20 -11
-3 -51 -44 -88 -92 -37 -48 -91 -113 -120 -146 l-52 -58 45 -40 c77 -67 208
-149 278 -174 80 -28 143 -30 197 -5 50 23 78 53 107 116 21 45 23 65 23 190
0 145 -18 276 -39 274 -6 0 -33 -7 -61 -15z"/>
<path d="M1329 973 c20 -38 158 -188 171 -188 13 0 151 150 171 188 9 16 -2
17 -171 17 -169 0 -180 -1 -171 -17z"/>
</g>
</svg>
