<svg height="232" viewBox="0 0 260 232" width="260" xmlns="http://www.w3.org/2000/svg"><path d="m72.88901 190.475233c-32.080731-10.068965-52.88901-26.260945-52.88901-44.520051 0-18.258966 20.8079621-34.450839 52.8882774-44.51982-7.3205803-32.8167664-3.7023205-58.9329724 12.1102926-68.0626565 15.812854-9.1298233 40.240037.7945954 65.000865 23.5428946 24.760539-22.7486137 49.187595-32.6733427 65.000565-23.5437203 15.81285 9.1295529 19.431376 35.2460409 12.11099 68.0632512 32.080731 10.068966 52.88901 26.260946 52.88901 44.520051 0 18.258967-20.807962 34.450839-52.888277 44.519821 7.32058 32.816766 3.70232 58.932972-12.110293 68.062656-15.812854 9.129823-40.240037-.794595-65.000864-23.542895-24.760539 22.748614-49.187596 32.673343-65.000566 23.543721-15.8128494-9.129553-19.4313757-35.246041-12.11099-68.063252zm8.4070827 2.429202c-6.6209079 28.314823-4.2800463 50.273414 8.3592693 57.570726 12.639416 7.29737 32.826764-1.654879 54.03785-21.546496-8.383658-8.425182-16.724977-18.260213-24.702421-29.26317-13.517876-1.407049-26.2062103-3.713237-37.6946983-6.76106zm137.4078143-93.8985053c6.620908-28.3148231 4.280047-50.2734141-8.359269-57.5707264-12.639416-7.29737-32.826764 1.6548794-54.03785 21.5464961 8.383658 8.4251817 16.724978 18.2602127 24.702421 29.2631699 13.517876 1.4070493 26.20621 3.7132371 37.694698 6.7610604zm-99.713545-6.7610157c7.977235-11.0029277 16.318349-20.8379538 24.70182-29.2631581-21.211363-19.8913236-41.398825-28.8433167-54.0381476-21.545786-12.6391228 7.297415-14.9797685 29.2557458-8.3586953 57.5701599 11.4885651-3.0478903 24.1770119-5.3541316 37.6950229-6.7612158zm12.186868-1.007488c6.1455-.3791028 12.430253-.5753502 18.82277-.5753502 6.392331 0 12.676902.1962359 18.822231.5753169-6.195666-8.1645404-12.525704-15.5593119-18.822719-22.0480686-6.296869 6.4887722-12.62675 13.8835414-18.822254 22.0480641zm49.832408 108.428025c-7.977235 11.002927-16.318349 20.837953-24.70182 29.263158 21.211363 19.891323 41.398825 28.843316 54.038148 21.545786 12.639122-7.297415 14.979768-29.255746 8.358695-57.57016-11.488565 3.04789-24.177012 5.354131-37.695023 6.761216zm-12.186868 1.007487c-6.1455.379103-12.430252.575351-18.82277.575351-6.39233 0-12.676902-.196236-18.822231-.575317 6.195666 8.16454 12.525704 15.559312 18.822719 22.048068 6.296869-6.488772 12.62675-13.883541 18.822254-22.048064zm-93.833969-18.693053c3.1046838-11.472984 7.4515122-23.614219 12.9917368-36.024285-5.5404979-12.410299-9.887553-24.551747-12.9923981-36.02492-27.8314315 8.423543-45.6774156 21.429993-45.6774156 36.024502 0 14.594625 17.8462668 27.601166 45.6780769 36.024703zm8.5295808 2.358477c8.7681482 2.208964 18.3374812 3.99349 28.5062922 5.276728-3.401023-5.132428-6.713322-10.476866-9.909558-16.012746-3.1964222-5.536204-6.1689937-11.077207-8.9135683-16.589042-3.9730012 9.447909-7.2121582 18.627303-9.6831731 27.325086zm28.5060362-82.043055c-10.168978 1.283269-19.7384556 3.067842-28.5067151 5.276866 2.4711486 8.697943 5.7104844 17.877518 9.6837044 27.325611 2.7445045-5.51187 5.7170056-11.052911 8.9133577-16.589155 3.196259-5.536082 6.50859-10.880714 9.909653-16.013322zm12.042026-1.258361c-4.780335 6.885984-9.437085 14.217217-13.888355 21.927045-4.451337 7.70994-8.472049 15.408533-12.0453578 22.991525 3.5734068 7.58294 7.5942158 15.281481 12.0456498 22.991363 4.451305 7.709662 9.108079 15.040738 13.888431 21.926576 8.353488.696873 17.030775 1.06411 25.933188 1.06411 8.902542 0 17.579951-.367247 25.933556-1.064147 4.780335-6.885984 9.437085-14.217217 13.888355-21.927044 4.451336-7.709941 8.472049-15.408534 12.045358-22.991525-3.573407-7.582941-7.594217-15.281481-12.04565-22.991364-4.451306-7.709661-9.10808-15.040737-13.888431-21.926576-8.353488-.696873-17.030775-1.0641091-25.933188-1.0641091-8.902542 0-17.579951.3672471-25.933556 1.0641461zm82.732149 55.975634c-2.744505 5.511871-5.717006 11.052912-8.913358 16.589156-3.196259 5.536082-6.50859 10.880713-9.909653 16.013321 10.168978-1.283268 19.738455-3.067842 28.506715-5.276866-2.471149-8.697942-5.710485-17.877517-9.683704-27.325611zm9.683025-49.440578c-8.768148-2.208963-18.337481-3.993489-28.506292-5.276727 3.401023 5.132427 6.713322 10.476866 9.909558 16.012746 3.196422 5.536203 6.168994 11.077206 8.913568 16.589042 3.973001-9.447909 7.212158-18.627304 9.683173-27.325086zm8.529581 2.358478c-3.104684 11.472984-7.451512 23.614219-12.991737 36.024285 5.540498 12.410299 9.887553 24.551746 12.992398 36.02492 27.831432-8.423543 45.677416-21.429994 45.677416-36.024503 0-14.594624-17.846267-27.601165-45.678077-36.024702zm-74.154075 60.243827c-12.855427 0-23.27681-10.421383-23.27681-23.276811 0-12.855427 10.421383-23.27681 23.27681-23.27681s23.27681 10.421383 23.27681 23.27681c0 12.855428-10.421383 23.276811-23.27681 23.276811zm.142876-12.174307-4.417198-7.186876c2.450637-1.318117 3.781848-3.766048 3.781848-7.092725 0-4.895863-3.207007-7.720399-8.834395-7.720399h-9.530255v22h5.536624v-6.088445h4.11465l3.085987 6.088445zm-12-17h3.724c2.072 0 3.276 1.032558 3.276 2.95814 0 1.981395-1.204 3.04186-3.276 3.04186h-3.724zm14-5v22h17v-4.582026h-11.474245v-4.142653l10.085257-.031384v-4.550642h-10.085257v-4.111269h11.172291v-4.582026z" fill="#fff" transform="translate(-20 -30)"/></svg>