<svg id="svg" version="1.1" width="550" height="550" xmlns="http://www.w3.org/2000/svg" xmlns:xlink="http://www.w3.org/1999/xlink" ><g id="svgg"><path id="path0" d="M72.278 53.054 C 65.292 54.722,58.123 60.660,54.707 67.609 L 52.727 71.636 52.727 197.091 L 52.727 322.545 54.662 326.673 C 57.370 332.449,61.840 337.016,67.529 339.818 L 72.328 342.182 86.087 342.433 C 97.415 342.641,99.769 342.512,99.411 341.706 C 91.713 324.373,92.225 335.351,92.494 193.455 L 92.727 70.182 94.446 65.091 C 95.392 62.291,96.947 58.456,97.901 56.570 C 98.855 54.683,99.636 52.965,99.636 52.751 C 99.636 52.162,74.869 52.435,72.278 53.054 M136.633 53.502 C 129.174 55.798,122.089 62.679,119.457 70.182 C 118.261 73.593,118.182 81.488,118.182 197.818 L 118.182 321.818 120.211 326.151 C 122.985 332.076,125.284 334.904,129.700 337.827 C 137.220 342.804,132.508 342.595,232.072 342.378 L 321.818 342.182 326.083 340.462 C 331.858 338.134,338.134 331.858,340.462 326.083 L 342.182 321.818 342.398 229.455 C 342.556 162.403,342.390 136.294,341.793 134.182 C 340.823 130.749,266.257 55.218,262.023 53.380 C 258.519 51.858,141.601 51.972,136.633 53.502 M310.735 144.587 C 308.031 144.709,295.509 144.709,282.909 144.587 C 248.499 144.252,250.182 146.234,250.182 106.026 L 250.182 78.915 282.917 111.639 L 315.652 144.364 310.735 144.587 M281.962 199.343 C 290.510 203.480,291.147 215.593,283.106 221.103 L 280.471 222.909 232.054 223.122 C 178.639 223.356,179.963 223.427,176.240 220.157 C 169.045 213.840,170.630 202.707,179.273 198.849 C 183.507 196.959,277.977 197.413,281.962 199.343 M255.781 251.817 C 264.413 256.538,264.739 269.221,256.349 273.973 L 253.455 275.612 217.244 275.624 C 175.960 275.638,177.135 275.800,173.486 269.574 C 169.355 262.524,172.432 254.005,180.113 251.229 C 184.767 249.547,252.593 250.074,255.781 251.817 " stroke="none" fill="#000000" fill-rule="evenodd"></path></g></svg>