<svg height="30" viewBox="0 0 30 30" width="30" xmlns="http://www.w3.org/2000/svg"><g fill-rule="evenodd" transform="translate(1 2)"><path d="m.05081102 12.7255866c0-3.27982435 6.25117683-5.93864732 13.96239428-5.93864732 7.7112174 0 13.9623942 2.65882297 13.9623942 5.93864732 0 3.2798244-6.2511768 5.9386473-13.9623942 5.9386473-7.71121745 0-13.96239428-2.6588229-13.96239428-5.9386473zm1 0c0 2.7275396 5.80346158 4.9386473 12.96239428 4.9386473 7.1589326 0 12.9623942-2.2111077 12.9623942-4.9386473s-5.8034616-4.93864732-12.9623942-4.93864732c-7.1589327 0-12.96239428 2.21110772-12.96239428 4.93864732z"/><path d="m7.03185455.63388717c2.84039038-1.63994826 8.26863895 2.44424924 12.12433245 9.12231044 3.8556935 6.67806119 4.6787594 13.42114019 1.838369 15.06108839-2.8403904 1.6399483-8.2686389-2.4442492-12.12433247-9.1223104-3.85569353-6.6780612-4.67875936-13.42114018-1.83836898-15.06108843zm.500011.86601905c-2.36210126 1.36379981-1.37516805 7.49528629 2.20437703 13.69505838 3.57954512 6.1997721 8.39620112 10.1201022 10.75830242 8.7563024 2.3621012-1.3637998 1.375168-7.4952863-2.2043771-13.6950584-3.579545-6.19977207-8.39620109-10.12010219-10.75830235-8.75630238z"/><path d="m7.03200814 24.8173747c-2.84041121-1.6399122-2.01743103-8.3830016 1.83817767-15.06111176 3.85560869-6.67811017 9.28380539-10.76237663 12.12421659-9.12246445s2.017431 8.3830016-1.8381777 15.06111181c-3.8556087 6.6781101-9.28380535 10.7623766-12.12421656 9.1224644zm.5-.8660254c2.36211859 1.3637698 7.17872486-2.5566215 10.75819116-8.756439 3.5794663-6.19981758 4.5663217-12.3313166 2.2042031-13.69508641-2.3621186-1.3637698-7.1787249 2.5566215-10.75819118 8.75643901-3.57946633 6.1998176-4.56632167 12.3313166-2.20420308 13.6950864z"/><circle cx="14.105263" cy="12.826794" r="2.5"/></g></svg>