<svg height="30" viewBox="0 0 30 30" width="30" xmlns="http://www.w3.org/2000/svg"><path d="m0 0h30v30h-30zm17.7955556 27.3611111-2.3927778-3.7530555c1.3275-.6883334 2.0486111-1.9666667 2.0486111-3.7038889 0-2.5566667-1.7372222-4.0316667-4.7855556-4.0316667h-5.16249997v11.4886111h2.99916667v-3.1794444h2.2288889l1.6716667 3.1794444zm-7.2930556-9.0958333h2.1797222c1.2127778 0 1.9175.6063889 1.9175 1.7372222 0 1.1636111-.7047222 1.7863889-1.9175 1.7863889h-2.1797222zm8.8663889-2.3927778v11.4886111h9.2269444v-2.3927778h-6.2277777v-2.1633333l5.4738888-.0163889v-2.3763889h-5.4738888v-2.1469444h6.0638888v-2.3927778z" fill-rule="evenodd"/></svg>