<svg height="30" viewBox="0 0 30 30" width="30" xmlns="http://www.w3.org/2000/svg"><path d="m21.1885714 0c1.5497143 0 2.8114286 1.26171429 2.8114286 2.82514286v24.60342854l-2.9485714-2.6057143-1.6594286-1.536-1.7554286-1.632.7268572 2.5371429h-15.55200003c-1.54971428 0-2.81142857-1.2617143-2.81142857-2.8251429v-18.54171424c0-1.56342857 1.26171429-2.82514286 2.81142857-2.82514286zm-5.2937143 17.9108571c3.0308572-.096 4.1965715-2.0845714 4.1965715-2.0845714 0-4.416-1.9748572-7.99542856-1.9748572-7.99542856-1.9748571-1.48114285-3.8537143-1.44011397-3.8537143-1.44011397l-.192.21954254c2.3314286.71314286 3.4148572 1.74171429 3.4148572 1.74171429-1.4262857-.78171429-2.8251429-1.16571429-4.128-1.31657143-.9874286-.10971428-1.9337143-.08228571-2.7702857.02742857l-.2331429.02742857c-.47999999.04114286-1.64571427.21942858-3.11314284.864-.50742857.23314286-.80914286.39771429-.80914286.39771429s1.13828571-1.08342857 3.6068571-1.79657143l-.13714281-.1646854s-1.87885715-.04102888-3.85371429 1.44011397c0 0-1.97485714 3.57942856-1.97485714 7.99542856 0 0 1.152 1.9885714 4.18285714 2.0845714 0 0 .50742857-.6171428.91885714-1.1382857-1.74171428-.5211428-2.4-1.6182857-2.4-1.6182857l.384.2331429.05485715.0411428.05371428.0308572.016.0068571.05371429.0308572c.34285714.192.68571428.3428571 1.00114285.4662857.56228572.2194285 1.23428572.4388571 2.01599999.5897143 1.0285714.192 2.2354286.2605714 3.552.0137142.6445714-.1097142 1.3028572-.3017142 1.9885714-.5897142.48-.1782858 1.0148572-.4388572 1.5771429-.8091429 0 0-.6857143 1.1245714-2.4822857 1.632.4114286.5211429.9051428 1.1108571.9051428 1.1108571zm-6.37714281-6.4045714c-.78171429 0-1.39885715.6857143-1.39885715 1.5222857 0 .8365715.63085715 1.5222857 1.39885715 1.5222857.78171431 0 1.39885711-.6857142 1.39885711-1.5222857.0137143-.8365714-.6171428-1.5222857-1.39885711-1.5222857zm5.00571431 0c-.7817143 0-1.3988572.6857143-1.3988572 1.5222857 0 .8365715.6308572 1.5222857 1.3988572 1.5222857.7817143 0 1.3988571-.6857142 1.3988571-1.5222857 0-.8365714-.6171428-1.5222857-1.3988571-1.5222857z" fill-rule="evenodd" transform="translate(3 2.5)"/></svg>